<svg xmlns="http://www.w3.org/2000/svg" viewBox="-19 -19 70 70"><path fill="hsl(0, 3%, 12%)" stroke="hsl(0, 3%, 12%)" stroke-width="1.4" d="m-17.949 11.303 9.464 4.732-9.464 4.732zm57.616 0 9.464 4.732-9.464 4.732z"/><path fill="hsl(50.8, 100%, 50%)" d="M-6.286 34.584V-2.515c0-2.108 1.827-3.935 3.935-3.935h36.959c2.248 0 4.075 1.827 4.075 3.935v36.959c0 2.248-1.827 3.935-3.935 3.935H-2.351c-2.108.14-3.935-1.687-3.935-3.795Z"/><path fill="#333" d="M14.249 22.752c-.013-.462-.019-.808-.019-1.039 0-1.359.192-2.533.577-3.52.283-.744.738-1.494 1.366-2.251.462-.552 1.293-1.357 2.492-2.415s1.978-1.901 2.337-2.53c.359-.628.539-1.314.539-2.058 0-1.347-.526-2.53-1.578-3.55-1.051-1.019-2.34-1.529-3.867-1.529-1.475 0-2.706.462-3.693 1.385-.988.923-1.636 2.366-1.943 4.329L6.9 9.151c.321-2.629 1.273-4.643 2.857-6.041 1.584-1.398 3.678-2.097 6.282-2.097 2.757 0 4.957.75 6.598 2.251 1.642 1.5 2.463 3.315 2.463 5.444 0 1.231-.289 2.366-.866 3.405-.577 1.039-1.706 2.303-3.386 3.79-1.129 1.001-1.866 1.738-2.212 2.213-.347.474-.603 1.019-.77 1.635-.167.615-.263 1.616-.288 3.001h-3.329Zm-.211 6.945v-3.944h3.944v3.944h-3.944Z" /></svg>